# xmcd
#
# Track frame offsets:
# 150
# 14539
# 32226
# 50208
# 68030
# 84924
# 98925
# 114860
# 133782
# 149348
# 165025
# 182491
# 197875
# 210730
# 226393
# 239816
# 253634
# 270189
# 284800
# 297742
#
# Disc length: 4233 seconds
#
#
# Revision: 0
# Processed by: cddbd v1.5.2PL0 Copyright (c) Steve Scherf et al.
# Submitted via: FreeRIP 2.945 
#
DISCID=2f108714
DTITLE=Bruno e Marrone - Em Foco
DYEAR=1900
DGENRE=Country
TTITLE0=Só de Você
TTITLE1=Choram As Rosas
TTITLE2=Lágrimas e Vinho
TTITLE3=Por um Gole a Mais
TTITLE4=Deixa
TTITLE5=Um Beijo e Tchau
TTITLE6=Trânsito Parado
TTITLE7=Você Não Me Ensinou a Te Esquecer
TTITLE8=Vou Pedir a Deus Você
TTITLE9=Que Pescar Que Nada
TTITLE10=Inevitável
TTITLE11=Abafa o Caso (Part. Alexandre Pires)
TTITLE12=Dormi Na Praça
TTITLE13=Acorrentado Em Você
TTITLE14=Pensa Num Trem Bão
TTITLE15=Amor de Carnaval
TTITLE16=Porque Choras?
TTITLE17=Programa de Fim de Semana
TTITLE18=Feriado Nacional
TTITLE19=Se Não Tivesse Ido
EXTD=
EXTT0=
EXTT1=
EXTT2=
EXTT3=
EXTT4=
EXTT5=
EXTT6=
EXTT7=
EXTT8=
EXTT9=
EXTT10=
EXTT11=
EXTT12=
EXTT13=
EXTT14=
EXTT15=
EXTT16=
EXTT17=
EXTT18=
EXTT19=
PLAYORDER=
